<?xml version="1.0" standalone="no"?>
<!DOCTYPE svg PUBLIC "-//W3C//DTD SVG 20010904//EN"
 "http://www.w3.org/TR/2001/REC-SVG-20010904/DTD/svg10.dtd">
<svg version="1.0" xmlns="http://www.w3.org/2000/svg"
 width="400.000000pt" height="400.000000pt" viewBox="0 0 400.000000 400.000000"
 preserveAspectRatio="xMidYMid meet">
<metadata>
Created by potrace 1.15, written by Peter Selinger 2001-2017
</metadata>
<g transform="translate(0.000000,400.000000) scale(0.100000,-0.100000)"
fill="#000000" stroke="none">
<path d="M3461 3324 c-124 -33 -227 -121 -284 -241 -28 -61 -31 -78 -32 -163
0 -52 3 -107 7 -122 7 -24 -21 -58 -364 -435 l-371 -408 -76 3 c-42 2 -95 -1
-118 -6 l-42 -10 -105 95 -105 95 6 67 c23 281 -223 510 -497 463 -143 -24
-258 -109 -321 -237 -33 -68 -34 -72 -34 -195 l0 -125 -290 -294 -290 -294
-115 -1 c-113 -1 -118 -2 -191 -38 -93 -46 -158 -112 -202 -206 -30 -63 -32
-73 -32 -182 0 -110 2 -118 33 -182 133 -272 495 -331 700 -115 92 98 129 204
118 343 l-6 83 294 298 295 299 56 -6 c32 -3 86 -2 122 2 l65 9 46 -42 c26
-23 72 -66 102 -94 l55 -52 0 -99 c0 -120 18 -179 81 -264 51 -70 133 -128
219 -154 90 -29 220 -20 308 21 89 42 168 121 210 210 31 66 32 73 32 196 l0
129 370 406 370 407 106 0 c101 0 108 1 180 37 93 46 158 112 202 206 30 63
32 73 32 182 0 110 -1 118 -33 183 -93 189 -301 285 -501 231z m162 -235 c84
-23 145 -115 135 -204 -18 -157 -216 -220 -325 -103 -26 27 -53 88 -53 119 0
75 63 164 130 186 46 15 67 15 113 2z m-1978 -694 c54 -31 89 -95 89 -160 0
-137 -144 -225 -269 -165 -148 72 -135 288 22 346 48 18 106 10 158 -21z m733
-690 c102 -43 150 -161 103 -253 -76 -148 -273 -147 -342 3 -33 72 -18 146 41
205 58 58 128 74 198 45z m-1869 -445 c72 -36 119 -117 108 -186 -14 -85 -66
-143 -147 -165 -112 -29 -229 64 -230 184 -1 135 149 229 269 167z"/>
</g>
</svg>
