<?xml version="1.0" standalone="no"?>
<!DOCTYPE svg PUBLIC "-//W3C//DTD SVG 20010904//EN"
 "http://www.w3.org/TR/2001/REC-SVG-20010904/DTD/svg10.dtd">
<svg version="1.0" xmlns="http://www.w3.org/2000/svg"
 width="200.000000pt" height="200.000000pt" viewBox="0 0 200.000000 200.000000"
 preserveAspectRatio="xMidYMid meet">
<metadata>
Created by potrace 1.15, written by Peter Selinger 2001-2017
</metadata>
<g transform="translate(0.000000,200.000000) scale(0.100000,-0.100000)"
fill="#000000" stroke="none">
<path d="M1140 1560 l0 -50 -50 0 -50 0 0 -210 0 -210 50 0 50 0 0 -50 c0 -43
3 -50 20 -50 17 0 20 7 20 50 l0 50 50 0 50 0 0 210 0 210 -50 0 -50 0 0 50
c0 43 -3 50 -20 50 -17 0 -20 -7 -20 -50z m100 -260 l0 -170 -80 0 -80 0 0
170 0 170 80 0 80 0 0 -170z"/>
<path d="M820 1360 l0 -50 -50 0 -50 0 0 -320 0 -320 50 0 50 0 0 -50 c0 -43
3 -50 20 -50 17 0 20 7 20 50 l0 50 50 0 50 0 0 320 0 320 -50 0 -50 0 0 50
c0 43 -3 50 -20 50 -17 0 -20 -7 -20 -50z m100 -150 c0 -33 -4 -60 -10 -60 -5
0 -10 -9 -10 -19 0 -11 5 -23 10 -26 6 -3 10 -31 10 -61 0 -30 -4 -54 -10 -54
-5 0 -10 -9 -10 -19 0 -11 5 -23 10 -26 6 -3 10 -22 10 -41 0 -19 -4 -34 -10
-34 -5 0 -10 -9 -10 -19 0 -11 5 -23 10 -26 6 -3 10 -31 10 -61 l0 -54 -80 0
-80 0 0 54 c0 30 5 58 10 61 6 3 10 15 10 26 0 10 -4 19 -10 19 -5 0 -10 15
-10 34 0 19 5 38 10 41 6 3 10 15 10 26 0 10 -4 19 -10 19 -5 0 -10 24 -10 54
0 30 5 58 10 61 6 3 10 15 10 26 0 10 -4 19 -10 19 -6 0 -10 27 -10 60 l0 60
80 0 80 0 0 -60z"/>
<path d="M1460 1340 l0 -50 -50 0 -50 0 0 -170 0 -170 50 0 50 0 0 -50 c0 -43
3 -50 20 -50 17 0 20 7 20 50 l0 50 50 0 50 0 0 170 0 170 -50 0 -50 0 0 50
c0 43 -3 50 -20 50 -17 0 -20 -7 -20 -50z m100 -140 c0 -27 -4 -50 -10 -50 -5
0 -10 -9 -10 -19 0 -11 5 -23 10 -26 6 -3 10 -31 10 -61 l0 -54 -80 0 -80 0 0
54 c0 30 5 58 10 61 6 3 10 15 10 26 0 10 -4 19 -10 19 -5 0 -10 23 -10 50 l0
50 80 0 80 0 0 -50z"/>
<path d="M500 1080 l0 -50 -50 0 -50 0 0 -270 0 -270 50 0 50 0 0 -50 c0 -43
3 -50 20 -50 17 0 20 7 20 50 l0 50 50 0 50 0 0 270 0 270 -50 0 -50 0 0 50
c0 43 -3 50 -20 50 -17 0 -20 -7 -20 -50z m100 -320 l0 -230 -80 0 -80 0 0
230 0 230 80 0 80 0 0 -230z"/>
</g>
</svg>
